<?xml version="1.0" encoding="UTF-8"?> <svg xmlns="http://www.w3.org/2000/svg" width="300" height="284" viewBox="0 0 300 284" fill="none"><rect x="0.5" y="1.4834" width="299" height="281.983" rx="23.5" fill="white"></rect><path d="M181.918 120.322L183.066 118.585L184.748 119.718C189.011 123.075 191.262 126.698 191.819 130.803L191.936 131.668H192.81H192.821H192.916L193.01 131.65C195.223 131.223 197.793 131.162 200.125 131.426C202.487 131.694 204.461 132.28 205.574 133.036L205.576 133.038L207.289 134.194L207.248 134.28L207.246 134.283C206.486 135.88 206.242 136.349 206.157 136.494L206.145 136.515L206.134 136.537C202.114 144.31 194.316 144.409 190.401 144.331L189.715 144.317L189.455 144.952C179.692 168.838 158.874 182 130.567 182C117.565 182 107.75 177.965 101.225 170.147C96.9141 164.98 94.7427 159.017 93.7436 153.778C92.7427 148.53 92.93 144.069 93.2812 141.971L93.2814 141.971L93.2954 141.886H132.022H171.585C175.914 141.977 179.189 140.737 180.895 139.802L181.837 139.285L181.254 138.382C179.806 136.142 179.325 133.539 179.166 132.049C178.825 127.828 179.877 123.44 181.916 120.324C181.917 120.324 181.917 120.323 181.918 120.322ZM144.696 102H154.731V111.083H144.696V102ZM144.696 115.299H154.731V124.382H144.696V115.299ZM130.472 115.299H140.508V124.382H130.472V115.299ZM116.249 115.299H126.284V124.382H116.249V115.299ZM102.026 128.598H112.061V137.681H102.026V128.598ZM116.249 128.598H126.284V137.681H116.249V128.598ZM130.472 128.598H140.508V137.681H130.472V128.598ZM144.696 128.598H154.731V137.681H144.696V128.598ZM158.919 128.598H168.954V137.681H158.919V128.598Z" stroke="#1D63ED" stroke-width="2"></path><rect x="0.5" y="1.4834" width="299" height="281.983" rx="23.5" stroke="#E1E2E6"></rect></svg> 